<svg xmlns="http://www.w3.org/2000/svg" width="18.686" height="22.889" viewBox="0 0 18.686 22.889">
  <g id="그룹_606" data-name="그룹 606" transform="translate(-275.784 -333.955)">
    <path id="패스_218" data-name="패스 218" d="M293.863,381.586a5.118,5.118,0,0,0,.606,9.069A38.24,38.24,0,0,1,291.7,395.4a2.969,2.969,0,0,1-3.774.994c-.208-.075-.413-.159-.618-.242a4.614,4.614,0,0,0-3.42-.045q-.481.177-.96.361a2.643,2.643,0,0,1-3.1-.646c-3.168-3.388-4.744-7.328-3.745-11.983a5.483,5.483,0,0,1,5.275-4.438,6.72,6.72,0,0,1,2.386.54,3.508,3.508,0,0,0,2.955,0,5.9,5.9,0,0,1,4.58-.312A5.115,5.115,0,0,1,293.863,381.586Z" transform="translate(0 -39.864)"/>
    <path id="패스_219" data-name="패스 219" d="M356.846,333.979a4.869,4.869,0,0,1-4,5.271c-.354.031-.613.02-.622-.472a5.191,5.191,0,0,1,4.39-4.822A1.269,1.269,0,0,1,356.846,333.979Z" transform="translate(-67.2 0)"/>
  </g>
</svg>
