<svg xmlns="http://www.w3.org/2000/svg" width="443" height="39.618" viewBox="0 0 443 39.618">
  <g id="그룹_685" data-name="그룹 685" transform="translate(-814.318 -491.5)">
    <rect id="사각형_4-2" data-name="사각형 4-2" width="6.438" height="4.426" transform="translate(1132.918 508.93)" fill="#fff"/>
    <rect id="사각형_536" data-name="사각형 536" width="443" height="39.618" transform="translate(814.318 491.5)"/>
    <path id="패스_134" data-name="패스 134" d="M1422.4,500.547v27h-5.454v-23.3a3.653,3.653,0,0,1,3.6-3.7Z" transform="translate(-337.353 -5.065)" fill="#fff"/>
    <g id="그룹_1-2" data-name="그룹 1-2" transform="translate(1057.666 495.462)">
      <path id="패스_4" data-name="패스 4" d="M1372.906,510.96v16.561h-5.775V504.3a3.8,3.8,0,0,1,3.8-3.8h13.708v4.937h-11.732Z" transform="translate(-1367.131 -500.5)" fill="#fff"/>
      <rect id="사각형_4" data-name="사각형 4" width="6.766" height="4.651" transform="translate(7.961 11.185)" fill="#fff"/>
    </g>
    <path id="패스_3" data-name="패스 3" d="M1498.947,530.558l-3.492,6.147h-5.41l6.212-10.14-5.843-9.661h5.41l3.122,5.562,3.122-5.562h5.409l-5.842,9.661,6.213,10.14h-5.408Z" transform="translate(-378.272 -14.222)" fill="#fff"/>
    <path id="패스_140" data-name="패스 140" d="M1759.424,532.7a3,3,0,0,0,.885.976,3.789,3.789,0,0,0,1.247.56,5.838,5.838,0,0,0,1.463.181,5.477,5.477,0,0,0,1.138-.127,3.858,3.858,0,0,0,1.084-.4,2.456,2.456,0,0,0,.813-.722,1.894,1.894,0,0,0,.326-1.138q0-1.156-1.536-1.734a30.722,30.722,0,0,0-4.283-1.157q-1.121-.252-2.186-.6a7.476,7.476,0,0,1-1.9-.9,4.383,4.383,0,0,1-1.337-1.409,3.988,3.988,0,0,1-.506-2.078,5.623,5.623,0,0,1,.7-2.963,5.207,5.207,0,0,1,1.861-1.825,8.175,8.175,0,0,1,2.6-.939,16.011,16.011,0,0,1,2.963-.271,14.881,14.881,0,0,1,2.946.289,7.831,7.831,0,0,1,2.547.976,5.863,5.863,0,0,1,1.861,1.825,6.136,6.136,0,0,1,.885,2.873h-3.123a2.377,2.377,0,0,1-2.083-1.23,1.873,1.873,0,0,0-.792-.776,5.131,5.131,0,0,0-2.385-.524,8.825,8.825,0,0,0-.94.054,3.132,3.132,0,0,0-.922.235,1.906,1.906,0,0,0-.7.524,1.385,1.385,0,0,0-.289.921,1.407,1.407,0,0,0,.506,1.12,3.878,3.878,0,0,0,1.321.7,16.331,16.331,0,0,0,1.86.488q1.047.218,2.132.47a22,22,0,0,1,2.186.614,7.2,7.2,0,0,1,1.9.958,4.63,4.63,0,0,1,1.337,1.481,4.351,4.351,0,0,1,.506,2.186,5.67,5.67,0,0,1-2.674,5.095,7.9,7.9,0,0,1-2.729,1.067,15.944,15.944,0,0,1-3.125.308,15.471,15.471,0,0,1-3.18-.325,8.386,8.386,0,0,1-2.764-1.084,6.181,6.181,0,0,1-1.987-2.006h0a2.047,2.047,0,0,1,1.741-3.125h2.289A2.811,2.811,0,0,0,1759.424,532.7Z" transform="translate(-526.389 -14.921)" fill="#fff"/>
    <path id="패스_141" data-name="패스 141" d="M1571.033,505.918h-4.2v-5.536h4.2Zm.452,2.479v18.985h-5.132V508.4Z" transform="translate(-420.99 -4.972)" fill="#fff"/>
    <path id="패스_142" data-name="패스 142" d="M1685.262,518.675v2.53h.073a7.3,7.3,0,0,1,2.439-2.241,6.608,6.608,0,0,1,3.271-.8,7.524,7.524,0,0,1,3.235.687,4.544,4.544,0,0,1,2.222,2.421,7.952,7.952,0,0,1,2.259-2.168,6,6,0,0,1,3.378-.94,9.963,9.963,0,0,1,2.747.362,5.537,5.537,0,0,1,2.168,1.156,5.319,5.319,0,0,1,1.409,2.078,8.435,8.435,0,0,1,.506,3.089v12.5h-1.532a3.6,3.6,0,0,1-3.6-3.6V527.67q0-.938-.072-1.77a3.8,3.8,0,0,0-.4-1.445,2.419,2.419,0,0,0-.958-.976,3.47,3.47,0,0,0-1.717-.361,3.286,3.286,0,0,0-1.753.415,3.027,3.027,0,0,0-1.048,1.085,4.345,4.345,0,0,0-.505,1.518,11.481,11.481,0,0,0-.127,1.717v9.508h-1.531a3.6,3.6,0,0,1-3.6-3.6v-5.982q0-.831-.035-1.644a4.635,4.635,0,0,0-.308-1.5,2.311,2.311,0,0,0-.9-1.1,3.411,3.411,0,0,0-1.861-.415,3.856,3.856,0,0,0-.958.162,3.176,3.176,0,0,0-1.156.616,3.58,3.58,0,0,0-.958,1.3,5.268,5.268,0,0,0-.4,2.222v9.941h-1.531a3.6,3.6,0,0,1-3.6-3.6V522.274a3.6,3.6,0,0,1,3.6-3.6h1.24Z" transform="translate(-484.846 -14.929)" fill="#fff"/>
    <path id="패스_143" data-name="패스 143" d="M1594.079,512.043v9.831a1.847,1.847,0,0,0,2.3,2.3q.46,0,.884-.038a7.428,7.428,0,0,0,.806-.116v4.226a13.3,13.3,0,0,1-1.536.154q-.846.037-1.651.038a15.867,15.867,0,0,1-2.4-.173,5.657,5.657,0,0,1-2-.672,3.548,3.548,0,0,1-1.365-1.421,5.067,5.067,0,0,1-.5-2.421V512.043h-3.3v-.949a2.7,2.7,0,0,1,2.7-2.7h.6v-3.253a2.7,2.7,0,0,1,2.7-2.7h2.753v9.6Zm1.35-3.648h3.993v3.648h-3.994" transform="translate(-431.61 -6.125)" fill="#fff"/>
    <path id="패스_147" data-name="패스 147" d="M1445.51,531.434a5.349,5.349,0,0,0,6.1.349,5.019,5.019,0,0,0,.757-.632,3.3,3.3,0,0,1,2.381-1.039h2.85a8.709,8.709,0,0,1-3.379,4.886,9.951,9.951,0,0,1-5.51,1.47,10.838,10.838,0,0,1-4.041-.717,8.392,8.392,0,0,1-3.049-2.039,9.17,9.17,0,0,1-1.929-3.159,11.567,11.567,0,0,1-.68-4.042,11.078,11.078,0,0,1,.7-3.968,9.183,9.183,0,0,1,5.051-5.289,9.825,9.825,0,0,1,3.949-.772,9.039,9.039,0,0,1,4.226.936,8.433,8.433,0,0,1,2.957,2.516,10.363,10.363,0,0,1,1.673,3.6,13.071,13.071,0,0,1,.384,2.591,1.585,1.585,0,0,1-1.535,1.632h-12.187A5.276,5.276,0,0,0,1445.51,531.434Zm5.9-9.993a3.664,3.664,0,0,0-2.847-1.029,4.544,4.544,0,0,0-2.076.423,3.958,3.958,0,0,0-1.321,1.047,3.836,3.836,0,0,0-.7,1.321,5.947,5.947,0,0,0-.238,1.249h8.486A6.023,6.023,0,0,0,1451.406,521.442Z" transform="translate(-349.702 -13.984)" fill="#fff"/>
    <path id="패스_148" data-name="패스 148" d="M1633.933,531.413a5.4,5.4,0,0,0,6.157.352,5.065,5.065,0,0,0,.764-.638,3.339,3.339,0,0,1,2.4-1.049h2.877a8.806,8.806,0,0,1-3.412,4.933,10.042,10.042,0,0,1-5.563,1.484,10.956,10.956,0,0,1-4.08-.723,8.482,8.482,0,0,1-3.078-2.059,9.238,9.238,0,0,1-1.946-3.189,11.66,11.66,0,0,1-.686-4.08,11.176,11.176,0,0,1,.7-4.006,9.261,9.261,0,0,1,5.1-5.34,9.917,9.917,0,0,1,3.987-.78,9.121,9.121,0,0,1,4.265.946,8.525,8.525,0,0,1,2.985,2.541,10.433,10.433,0,0,1,1.688,3.635,13.154,13.154,0,0,1,.388,2.632,1.585,1.585,0,0,1-1.535,1.632h-12.316A5.325,5.325,0,0,0,1633.933,531.413Zm5.953-10.089a3.7,3.7,0,0,0-2.874-1.038,4.587,4.587,0,0,0-2.1.427,3.98,3.98,0,0,0-1.335,1.057,3.87,3.87,0,0,0-.7,1.335,6.049,6.049,0,0,0-.241,1.261h8.568A6.1,6.1,0,0,0,1639.885,521.324Z" transform="translate(-455.146 -13.891)" fill="#fff"/>
    <path id="패스_130" data-name="패스 130" d="M1259.084,522.893a8.826,8.826,0,0,1,5.153-5.263,8.724,8.724,0,0,1,3.65-.729,9.479,9.479,0,0,1,8.838,5.992,11.981,11.981,0,0,1,1.165,4.2,11.8,11.8,0,0,1-1.165,4.18,9.075,9.075,0,0,1-2.016,3.191,6.177,6.177,0,0,1-2.7,1.579,11.434,11.434,0,0,1-4.124.709,11.287,11.287,0,0,1-4.1-.709,6.162,6.162,0,0,1-2.68-1.579,9.045,9.045,0,0,1-2.016-3.191,11.791,11.791,0,0,1-1.165-4.18A11.972,11.972,0,0,1,1259.084,522.893Zm4.359,6.457a6.009,6.009,0,0,0,.765,1.978,4.064,4.064,0,0,0,1.437,1.4,4.384,4.384,0,0,0,2.24.524,4.487,4.487,0,0,0,2.258-.524,4.027,4.027,0,0,0,1.456-1.4,6.023,6.023,0,0,0,.765-1.978,11.305,11.305,0,0,0,.224-2.258,11.585,11.585,0,0,0-.224-2.277,5.81,5.81,0,0,0-.765-1.978,4.255,4.255,0,0,0-1.456-1.4,4.385,4.385,0,0,0-2.258-.541,4.074,4.074,0,0,0-3.677,1.942,5.79,5.79,0,0,0-.765,1.978,11.551,11.551,0,0,0-.224,2.277,11.3,11.3,0,0,0,.224,2.258Z" transform="translate(-248.329 -14.219)" fill="#fff"/>
    <path id="패스_133" data-name="패스 133" d="M1114.5,512.2v9.831a1.846,1.846,0,0,0,2.3,2.3q.46,0,.883-.038a7.444,7.444,0,0,0,.806-.115v4.226a12.9,12.9,0,0,1-1.536.154q-.845.038-1.651.038a15.888,15.888,0,0,1-2.4-.173,5.65,5.65,0,0,1-2-.672,3.552,3.552,0,0,1-1.365-1.421,5.069,5.069,0,0,1-.5-2.421V512.2h-3.3v-.949a2.7,2.7,0,0,1,2.7-2.7h.6V505.3a2.7,2.7,0,0,1,2.7-2.7h2.753v9.6Zm1.35-3.648h3.993V512.2h-3.993" transform="translate(-163.138 -6.215)" fill="#fff"/>
    <path id="패스_135" data-name="패스 135" d="M1232.771,513.37v15.2H1227.5V507.913a5.743,5.743,0,0,1,1.594-4.191,6.464,6.464,0,0,1,4.822-1.632q.7,0,1.409.055c.468.037.927.069,1.372.092v1.948a1.878,1.878,0,0,1-1.874,1.873h-.054a2.018,2.018,0,0,0-1.541.5,2.452,2.452,0,0,0-.464,1.687v5.123h4.085V512.1a2.7,2.7,0,0,0-2.7-2.7h-1.384" transform="translate(-231.3 -5.928)" fill="#fff"/>
    <path id="패스_136" data-name="패스 136" d="M1317.1,537h-5.454V517.151h5.418Z" transform="translate(-278.406 -14.359)" fill="#fff"/>
    <path id="패스_138" data-name="패스 138" d="M867.37,516.97l2.88-8.271v15.175a3.87,3.87,0,0,0,3.692,3.674h1.818v-23.4a3.6,3.6,0,0,0-3.6-3.6h-1.614A3.279,3.279,0,0,0,867.5,503.1l-3.921,10.924a.9.9,0,0,1-1.694,0L857.9,502.931a3.6,3.6,0,0,0-3.39-2.384H853.15a3.462,3.462,0,0,0-3.2,3.674v19.653a3.715,3.715,0,0,0,3.515,3.674H855.5l-.135-18.655,2.571,7.979a4.876,4.876,0,0,0,4.85,3.686h0A4.876,4.876,0,0,0,867.37,516.97Z" transform="translate(-19.947 -5.065)" fill="#fff"/>
    <path id="패스_139" data-name="패스 139" d="M973.76,537H968.3V517.151h5.418Z" transform="translate(-86.202 -14.359)" fill="#fff"/>
    <rect id="사각형_4-3" data-name="사각형 4-3" width="4.728" height="4.426" transform="translate(889.166 504.306)" fill="#fff"/>
    <path id="패스_144" data-name="패스 144" d="M1010.165,500.547v11.6a1.161,1.161,0,0,0,2,.805l4.77-4.957h6.353l-7.374,7.185,8.206,12.366h-6.5l-4.693-7.633a1.04,1.04,0,0,0-1.43-.342,1.051,1.051,0,0,0-.177.137l-.286.276a2.819,2.819,0,0,0-.862,2.029v5.533h-5.37v-22.8a4.2,4.2,0,0,1,4.2-4.2Z" transform="translate(-106.629 -5.065)" fill="#fff"/>
    <path id="패스_145" data-name="패스 145" d="M919.793,523.355a1.995,1.995,0,0,1-1.663-3.1h0a6.347,6.347,0,0,1,2.088-1.976,9.086,9.086,0,0,1,2.853-1.063,16.228,16.228,0,0,1,3.188-.317,21.7,21.7,0,0,1,2.947.2,9.046,9.046,0,0,1,2.722.8,5.376,5.376,0,0,1,2.014,1.66,4.638,4.638,0,0,1,.783,2.817V532.42a20.112,20.112,0,0,0,.149,2.5,4.5,4.5,0,0,0,.522,1.79h-5.37a7.327,7.327,0,0,1-.242-.913,7.839,7.839,0,0,1-.132-.952,6.891,6.891,0,0,1-2.984,1.828,11.946,11.946,0,0,1-3.506.522,9.448,9.448,0,0,1-2.574-.335,5.881,5.881,0,0,1-2.088-1.044,4.855,4.855,0,0,1-1.4-1.79,6.05,6.05,0,0,1-.5-2.573,5.612,5.612,0,0,1,.579-2.7,4.831,4.831,0,0,1,1.491-1.7,6.7,6.7,0,0,1,2.088-.951,22.636,22.636,0,0,1,2.369-.5q1.193-.185,2.35-.3a14.115,14.115,0,0,0,2.051-.335,3.571,3.571,0,0,0,1.417-.653,1.43,1.43,0,0,0,.484-1.249,2.809,2.809,0,0,0-.28-1.362,2.066,2.066,0,0,0-.745-.784,2.964,2.964,0,0,0-1.082-.373,8.957,8.957,0,0,0-1.324-.093,4.015,4.015,0,0,0-2.462.672,2.189,2.189,0,0,0-.513.545,3.878,3.878,0,0,1-3.232,1.692Zm9.636,4.95a.616.616,0,0,0-.622-.61.623.623,0,0,0-.206.038l-.011,0a8.638,8.638,0,0,1-1.081.28c-.385.074-.79.137-1.212.187s-.846.112-1.268.187a9.4,9.4,0,0,0-1.175.3,3.485,3.485,0,0,0-1.007.5,2.392,2.392,0,0,0-.69.8,2.584,2.584,0,0,0-.26,1.233,2.492,2.492,0,0,0,.26,1.193,2,2,0,0,0,.709.765,3,3,0,0,0,1.044.392,6.692,6.692,0,0,0,1.233.112,4.68,4.68,0,0,0,2.424-.522,3.5,3.5,0,0,0,1.268-1.25,4,4,0,0,0,.5-1.473,10.116,10.116,0,0,0,.093-1.193Z" transform="translate(-57.255 -14.221)" fill="#fff"/>
    <path id="패스_146" data-name="패스 146" d="M1061.784,531.82a5.3,5.3,0,0,0,6.042.346,4.935,4.935,0,0,0,.75-.626,3.273,3.273,0,0,1,2.359-1.03h2.824a8.62,8.62,0,0,1-3.349,4.839,9.857,9.857,0,0,1-5.46,1.457,10.734,10.734,0,0,1-4-.711,8.307,8.307,0,0,1-3.021-2.02,9.063,9.063,0,0,1-1.912-3.131,11.427,11.427,0,0,1-.673-4,10.978,10.978,0,0,1,.691-3.931,9.1,9.1,0,0,1,5.005-5.241,9.746,9.746,0,0,1,3.913-.764,8.951,8.951,0,0,1,4.187.928,8.358,8.358,0,0,1,2.93,2.493,10.251,10.251,0,0,1,1.656,3.567,12.88,12.88,0,0,1,.381,2.583,1.556,1.556,0,0,1-1.506,1.6h-12.088A5.229,5.229,0,0,0,1061.784,531.82Zm5.842-9.9a3.636,3.636,0,0,0-2.821-1.019,4.5,4.5,0,0,0-2.056.419,3.909,3.909,0,0,0-1.31,1.037,3.8,3.8,0,0,0-.691,1.31,5.966,5.966,0,0,0-.236,1.238h8.408a5.984,5.984,0,0,0-1.292-2.985Z" transform="translate(-134.924 -14.275)" fill="#fff"/>
    <rect id="사각형_45" data-name="사각형 45" width="3.926" height="3.943" transform="translate(991.094 503.69)" fill="#fff"/>
    <rect id="사각형_4-4" data-name="사각형 4-4" width="4.728" height="4.426" transform="translate(1040.03 504.306)" fill="#fff"/>
    <path id="패스_140-2" data-name="패스 140" d="M1153.424,531.7a2.993,2.993,0,0,0,.886.975,3.78,3.78,0,0,0,1.247.56,5.835,5.835,0,0,0,1.463.181,5.473,5.473,0,0,0,1.138-.127,3.854,3.854,0,0,0,1.084-.4,2.452,2.452,0,0,0,.813-.722,1.894,1.894,0,0,0,.326-1.138q0-1.156-1.536-1.734a30.715,30.715,0,0,0-4.283-1.157q-1.121-.252-2.187-.6a7.476,7.476,0,0,1-1.9-.9,4.379,4.379,0,0,1-1.336-1.409,3.983,3.983,0,0,1-.506-2.078,5.625,5.625,0,0,1,.7-2.963,5.206,5.206,0,0,1,1.861-1.825,8.171,8.171,0,0,1,2.6-.939,16.011,16.011,0,0,1,2.964-.271,14.874,14.874,0,0,1,2.945.289,7.83,7.83,0,0,1,2.547.976,5.861,5.861,0,0,1,1.861,1.825,6.134,6.134,0,0,1,.885,2.873h-3.123a2.377,2.377,0,0,1-2.083-1.23,1.87,1.87,0,0,0-.792-.776,5.132,5.132,0,0,0-2.385-.524,8.841,8.841,0,0,0-.94.054,3.129,3.129,0,0,0-.921.235,1.9,1.9,0,0,0-.7.524,1.385,1.385,0,0,0-.289.921,1.406,1.406,0,0,0,.506,1.12,3.875,3.875,0,0,0,1.321.7,16.345,16.345,0,0,0,1.86.488q1.047.218,2.132.47a22.016,22.016,0,0,1,2.186.614,7.208,7.208,0,0,1,1.9.958,4.635,4.635,0,0,1,1.337,1.481,4.35,4.35,0,0,1,.506,2.186,5.67,5.67,0,0,1-2.674,5.095,7.908,7.908,0,0,1-2.729,1.067,15.958,15.958,0,0,1-3.125.308,15.475,15.475,0,0,1-3.18-.325,8.386,8.386,0,0,1-2.764-1.084,6.18,6.18,0,0,1-1.987-2.006h0a2.047,2.047,0,0,1,1.741-3.125h2.289A2.809,2.809,0,0,0,1153.424,531.7Z" transform="translate(-187.149 -14.361)" fill="#fff"/>
  </g>
</svg>
